<svg width="216" height="216" viewBox="0 0 216 216" fill="none" xmlns="http://www.w3.org/2000/svg">
<rect width="216" height="216" rx="22" fill="#6A00AB"/>
<path d="M48.8563 145V69.6217H63.5073V132.154H101.94V145H48.8563ZM145.089 145.531C139.073 145.531 133.941 144.54 129.695 142.558C125.519 140.506 122.122 137.71 119.503 134.171C116.955 130.632 115.079 126.633 113.876 122.174C112.673 117.644 112.071 112.938 112.071 108.054V69.6217H126.722V108.054C126.722 111.168 127.005 114.212 127.571 117.184C128.208 120.086 129.235 122.705 130.65 125.041C132.066 127.376 133.941 129.217 136.277 130.561C138.613 131.906 141.515 132.578 144.983 132.578C148.522 132.578 151.459 131.906 153.795 130.561C156.201 129.146 158.077 127.27 159.421 124.934C160.837 122.599 161.863 119.98 162.5 117.078C163.137 114.105 163.456 111.097 163.456 108.054V69.6217H178.001V108.054C178.001 113.221 177.364 118.069 176.09 122.599C174.886 127.129 172.94 131.128 170.25 134.596C167.632 137.993 164.234 140.683 160.058 142.664C155.883 144.575 150.893 145.531 145.089 145.531Z" fill="white"/>
</svg>
