<svg width="210" height="67" viewBox="0 0 210 67" fill="none" xmlns="http://www.w3.org/2000/svg">
<path d="M3.61543 46V11.3114H10.3577V40.0883H28.044V46H3.61543ZM47.901 46.2443C45.1324 46.2443 42.771 45.7883 40.8167 44.8763C38.895 43.9317 37.3316 42.6451 36.1264 41.0166C34.9539 39.388 34.0907 37.5477 33.537 35.4957C32.9833 33.4111 32.7064 31.2451 32.7064 28.9977V11.3114H39.4487V28.9977C39.4487 30.4309 39.579 31.8314 39.8396 33.1994C40.1327 34.5349 40.605 35.74 41.2564 36.8149C41.9079 37.8897 42.771 38.7366 43.8459 39.3554C44.9207 39.9743 46.2561 40.2837 47.8521 40.2837C49.4807 40.2837 50.8324 39.9743 51.9073 39.3554C53.0147 38.704 53.8779 37.8409 54.4967 36.766C55.1481 35.6911 55.6204 34.486 55.9136 33.1506C56.2067 31.7826 56.3533 30.3983 56.3533 28.9977V11.3114H63.0467V28.9977C63.0467 31.3754 62.7536 33.6066 62.1673 35.6911C61.6136 37.7757 60.7179 39.616 59.4801 41.212C58.275 42.7754 56.7116 44.0131 54.7899 44.9251C52.8681 45.8046 50.5719 46.2443 47.901 46.2443ZM99.7384 37.0591C99.7384 39.0134 99.2336 40.6583 98.2239 41.9937C97.2141 43.2966 95.8461 44.29 94.1199 44.974C92.4261 45.658 90.5696 46 88.5501 46H71.7921V11.3114H90.3579C91.9864 11.3114 93.387 11.7511 94.5596 12.6306C95.7647 13.4774 96.6767 14.5849 97.2956 15.9529C97.947 17.2883 98.2727 18.6889 98.2727 20.1546C98.2727 21.8157 97.8493 23.3954 97.0024 24.8937C96.1556 26.392 94.9179 27.4994 93.2893 28.216C95.2761 28.8023 96.8396 29.8609 97.9796 31.3917C99.1521 32.9226 99.7384 34.8117 99.7384 37.0591ZM92.9473 35.7889C92.9473 34.9094 92.7681 34.1277 92.4099 33.4437C92.0516 32.7271 91.563 32.1734 90.9441 31.7826C90.3579 31.3591 89.6739 31.1474 88.8921 31.1474H78.5344V40.2837H88.5501C89.3644 40.2837 90.0973 40.0883 90.7487 39.6974C91.4327 39.274 91.9701 38.7203 92.361 38.0363C92.7519 37.3523 92.9473 36.6031 92.9473 35.7889ZM78.5344 17.0766V25.822H87.5241C88.2733 25.822 88.9573 25.6429 89.5761 25.2846C90.195 24.9263 90.6836 24.4214 91.0419 23.77C91.4327 23.1186 91.6281 22.3369 91.6281 21.4249C91.6281 20.5454 91.449 19.78 91.0907 19.1286C90.765 18.4771 90.309 17.9723 89.7227 17.614C89.169 17.2557 88.5339 17.0766 87.8173 17.0766H78.5344ZM115.62 11.3114H122.46L135.212 46H128.274L125.049 37.3523H112.933L109.757 46H102.819L115.62 11.3114ZM123.828 32.6131L119.04 18.298L114.057 32.6131H123.828ZM147.713 23.7211V46H140.971V11.3114H146.345L164.276 34.1766V11.3603H171.018V46H165.399L147.713 23.7211ZM180.188 46V11.3603H186.931V27.8251L201.49 11.3114H208.916L195.627 26.7014L209.747 46H202.125L191.328 31.0497L186.931 35.6423V46H180.188Z" fill="white"/>
<path d="M2.962 64V54.77H9.163V56.343H4.756V58.722H8.422V60.178H4.756V64H2.962ZM13.0268 64V54.77H14.8208V64H13.0268ZM21.1406 58.072V64H19.3466V54.77H20.7766L25.5476 60.854V54.783H27.3416V64H25.8466L21.1406 58.072ZM34.3706 54.77H36.1906L39.5836 64H37.7376L36.8796 61.699H33.6556L32.8106 64H30.9646L34.3706 54.77ZM36.5546 60.438L35.2806 56.629L33.9546 60.438H36.5546ZM44.99 58.072V64H43.196V54.77H44.626L49.397 60.854V54.783H51.191V64H49.696L44.99 58.072ZM55.152 59.32C55.152 58.7567 55.2517 58.2063 55.451 57.669C55.659 57.123 55.958 56.629 56.348 56.187C56.738 55.7363 57.2147 55.381 57.778 55.121C58.3414 54.8523 58.9827 54.718 59.702 54.718C60.5514 54.718 61.2837 54.9043 61.899 55.277C62.523 55.6497 62.9867 56.135 63.29 56.733L61.912 57.682C61.756 57.3353 61.5524 57.0623 61.301 56.863C61.0497 56.655 60.781 56.512 60.495 56.434C60.209 56.3473 59.9274 56.304 59.65 56.304C59.1994 56.304 58.805 56.395 58.467 56.577C58.1377 56.759 57.8604 56.9973 57.635 57.292C57.4097 57.5867 57.2407 57.916 57.128 58.28C57.024 58.644 56.972 59.008 56.972 59.372C56.972 59.7793 57.037 60.1737 57.167 60.555C57.297 60.9277 57.479 61.2613 57.713 61.556C57.9557 61.842 58.2417 62.0717 58.571 62.245C58.909 62.4097 59.2774 62.492 59.676 62.492C59.962 62.492 60.2524 62.4443 60.547 62.349C60.8417 62.2537 61.1147 62.102 61.366 61.894C61.6174 61.686 61.8124 61.4173 61.951 61.088L63.42 61.933C63.238 62.3923 62.939 62.7823 62.523 63.103C62.1157 63.4237 61.6564 63.6663 61.145 63.831C60.6337 63.9957 60.1267 64.078 59.624 64.078C58.9654 64.078 58.363 63.9437 57.817 63.675C57.271 63.3977 56.7987 63.0337 56.4 62.583C56.01 62.1237 55.7024 61.6123 55.477 61.049C55.2604 60.477 55.152 59.9007 55.152 59.32ZM67.2231 64V54.77H69.0171V64H67.2231ZM76.0519 54.77H77.8719L81.2649 64H79.4189L78.5609 61.699H75.3369L74.4919 64H72.6459L76.0519 54.77ZM78.2359 60.438L76.9619 56.629L75.6359 60.438H78.2359ZM84.8772 64V54.77H86.6712V62.427H91.3772V64H84.8772ZM100.399 64V54.77H102.193V64H100.399ZM108.512 58.072V64H106.718V54.77H108.148L112.919 60.854V54.783H114.713V64H113.218L108.512 58.072ZM124.732 57.188C124.672 57.1273 124.559 57.045 124.394 56.941C124.238 56.837 124.043 56.7373 123.809 56.642C123.584 56.5467 123.337 56.4643 123.068 56.395C122.8 56.317 122.527 56.278 122.249 56.278C121.764 56.278 121.396 56.369 121.144 56.551C120.902 56.733 120.78 56.9887 120.78 57.318C120.78 57.5693 120.858 57.7687 121.014 57.916C121.17 58.0633 121.404 58.189 121.716 58.293C122.028 58.397 122.418 58.5097 122.886 58.631C123.493 58.7783 124.017 58.9603 124.459 59.177C124.91 59.385 125.252 59.6623 125.486 60.009C125.729 60.347 125.85 60.7977 125.85 61.361C125.85 61.855 125.759 62.2797 125.577 62.635C125.395 62.9817 125.144 63.2633 124.823 63.48C124.503 63.6967 124.139 63.857 123.731 63.961C123.324 64.0563 122.891 64.104 122.431 64.104C121.972 64.104 121.513 64.0563 121.053 63.961C120.594 63.8657 120.152 63.7313 119.727 63.558C119.303 63.376 118.913 63.1593 118.557 62.908L119.35 61.361C119.428 61.439 119.567 61.543 119.766 61.673C119.966 61.7943 120.208 61.92 120.494 62.05C120.78 62.1713 121.092 62.2753 121.43 62.362C121.768 62.4487 122.111 62.492 122.457 62.492C122.943 62.492 123.311 62.4097 123.562 62.245C123.814 62.0803 123.939 61.8463 123.939 61.543C123.939 61.2657 123.84 61.049 123.64 60.893C123.441 60.737 123.164 60.6027 122.808 60.49C122.453 60.3687 122.033 60.2387 121.547 60.1C120.967 59.9353 120.481 59.7533 120.091 59.554C119.701 59.346 119.411 59.086 119.22 58.774C119.03 58.462 118.934 58.072 118.934 57.604C118.934 56.9713 119.082 56.4427 119.376 56.018C119.68 55.5847 120.087 55.2597 120.598 55.043C121.11 54.8177 121.677 54.705 122.301 54.705C122.735 54.705 123.142 54.7527 123.523 54.848C123.913 54.9433 124.277 55.069 124.615 55.225C124.953 55.381 125.257 55.55 125.525 55.732L124.732 57.188ZM136.709 56.343H133.758V64H131.977V56.343H129.026V54.77H136.709V56.343ZM140.455 64V54.77H142.249V64H140.455ZM153.678 56.343H150.727V64H148.946V56.343H145.995V54.77H153.678V56.343ZM161.336 64.065C160.6 64.065 159.971 63.9437 159.451 63.701C158.94 63.4497 158.524 63.1073 158.203 62.674C157.891 62.2407 157.662 61.751 157.514 61.205C157.367 60.6503 157.293 60.074 157.293 59.476V54.77H159.087V59.476C159.087 59.8573 159.122 60.23 159.191 60.594C159.269 60.9493 159.395 61.27 159.568 61.556C159.742 61.842 159.971 62.0673 160.257 62.232C160.543 62.3967 160.899 62.479 161.323 62.479C161.757 62.479 162.116 62.3967 162.402 62.232C162.697 62.0587 162.927 61.829 163.091 61.543C163.265 61.257 163.39 60.9363 163.468 60.581C163.546 60.217 163.585 59.8487 163.585 59.476V54.77H165.366V59.476C165.366 60.1087 165.288 60.7023 165.132 61.257C164.985 61.8117 164.747 62.3013 164.417 62.726C164.097 63.142 163.681 63.4713 163.169 63.714C162.658 63.948 162.047 64.065 161.336 64.065ZM177.196 56.343H174.245V64H172.464V56.343H169.513V54.77H177.196V56.343ZM180.942 64V54.77H182.736V64H180.942ZM191.201 64.065C190.525 64.065 189.91 63.935 189.355 63.675C188.809 63.415 188.337 63.064 187.938 62.622C187.548 62.1713 187.245 61.6687 187.028 61.114C186.811 60.5507 186.703 59.9743 186.703 59.385C186.703 58.7697 186.816 58.1847 187.041 57.63C187.275 57.0667 187.591 56.5683 187.99 56.135C188.397 55.693 188.874 55.3463 189.42 55.095C189.975 54.835 190.581 54.705 191.24 54.705C191.907 54.705 192.514 54.8393 193.06 55.108C193.615 55.3767 194.087 55.7363 194.477 56.187C194.867 56.6377 195.17 57.1403 195.387 57.695C195.604 58.2497 195.712 58.8217 195.712 59.411C195.712 60.0177 195.599 60.6027 195.374 61.166C195.149 61.7207 194.832 62.219 194.425 62.661C194.026 63.0943 193.55 63.4367 192.995 63.688C192.449 63.9393 191.851 64.065 191.201 64.065ZM188.523 59.385C188.523 59.7837 188.584 60.1693 188.705 60.542C188.826 60.9147 189 61.2483 189.225 61.543C189.459 61.829 189.741 62.0587 190.07 62.232C190.408 62.3967 190.789 62.479 191.214 62.479C191.647 62.479 192.033 62.3923 192.371 62.219C192.709 62.037 192.991 61.7987 193.216 61.504C193.441 61.2007 193.61 60.867 193.723 60.503C193.844 60.1303 193.905 59.7577 193.905 59.385C193.905 58.9863 193.84 58.605 193.71 58.241C193.589 57.8683 193.411 57.539 193.177 57.253C192.952 56.9583 192.67 56.7287 192.332 56.564C192.003 56.3907 191.63 56.304 191.214 56.304C190.772 56.304 190.382 56.395 190.044 56.577C189.715 56.7503 189.437 56.9843 189.212 57.279C188.987 57.5737 188.813 57.903 188.692 58.267C188.579 58.631 188.523 59.0037 188.523 59.385ZM201.482 58.072V64H199.688V54.77H201.118L205.889 60.854V54.783H207.683V64H206.188L201.482 58.072Z" fill="white"/>
</svg>
