<svg width="500" height="500" viewBox="0 0 500 500" fill="none" xmlns="http://www.w3.org/2000/svg">
<path fill-rule="evenodd" clip-rule="evenodd" d="M159.5 107H394.5L394 340.5L377.7 340.8C368.8 340.9 361.5 340.7 361.5 340.2C361.5 339.8 362.9 336.8 364.5 333.5C366.1 330.2 368.1 324.8 369 321.5C369.8 318.2 370.8 312.1 371.1 308C371.5 303.7 371.3 296.9 370.6 292C369.9 287.3 368.4 281.2 367.2 278.5C366.1 275.7 363.5 271 361.5 268C359.5 265 355.8 260.8 353.4 258.7C351 256.6 347 253.6 344.5 252.2C342 250.7 337.3 248.6 334 247.4C330.7 246.2 327.9 244.6 327.7 243.9C327.5 243.1 329.5 241.1 332.2 239.3C334.8 237.6 339.4 233.6 342.3 230.6C345.1 227.5 348.8 222.2 350.5 218.8C352.2 215.1 353.9 209.3 354.5 205C355.2 199.6 355.2 195.2 354.4 189.5C353.8 185.1 352.7 179.9 352.1 178C351.4 176.1 349.3 172 347.3 169C345.4 166 341.6 161.5 338.9 159.2C336.2 156.8 330.9 153.3 327 151.5C323.1 149.6 316.6 147.4 312.5 146.4C306 144.9 297.7 144.6 195.5 144V341H159.5V107ZM128.7 121C129.2 121 129.5 177.5 129.5 372L378 372.1L372.5 377C369.5 379.7 363.9 383.5 360 385.5C356.1 387.4 350.5 389.6 347.5 390.4C343 391.6 321.4 391.8 105 392.4V276.4C105 166.6 105.1 160.2 106.9 154C107.9 150.4 110.1 144.8 111.7 141.5C113.4 138.2 116.4 133.5 118.4 131C120.4 128.5 123.3 125.3 125 123.8C126.6 122.2 128.3 121 128.7 121V121ZM239.5 178H254.5V233H239.5V178ZM267.5 178H275.4L274.9 189.3C274.7 195.4 274.5 207.8 274.5 233H267.5V178ZM288.9 178L292.5 178.6C294.4 179 298 180.3 300.5 181.6C303 182.9 306 185.3 307.3 187C308.5 188.6 310.2 191.9 311 194.3C311.9 196.7 312.5 201.7 312.5 206C312.4 210.1 311.9 215.1 311.2 217C310.5 219 308.8 222.1 307.4 224C306 225.9 302.9 228.5 300.4 229.7C298 230.9 294.1 232.3 287.5 233.5V224C287.5 218.8 287.8 206.3 288.2 196.2L288.9 178ZM239.5 267.1H253.5V333.1H239.5V267.1ZM266.5 267.1H274.5V333.1H266.5V267.1ZM287.8 266.8L296.4 267.2C303.9 267.6 305.8 268.2 311.5 271.2C315.9 273.6 319 276.2 321 279.2C322.7 281.6 324.7 286.3 325.4 289.6C326.2 293 326.5 298.7 326.3 303.1C326 307.8 325 312.4 323.6 315.6C322.4 318.3 320.2 321.8 318.7 323.4C317.2 325 314 327.3 311.5 328.5C309 329.8 304.6 331.3 301.7 331.9C298.9 332.6 294.5 333.1 287.5 333.1L287.8 266.8Z" fill="#EBEBEB"/>
</svg>
